<svg data-name="Layer 1" xmlns="http://www.w3.org/2000/svg" xmlns:xlink="http://www.w3.org/1999/xlink" viewBox="0 0 340.36 300.12" width="500" height="500" class="illustration styles_illustrationTablet__1DWOa"><defs><linearGradient id="a" x1="-1508.13" y1="-1361.85" x2="-1493.79" y2="-1232.77" gradientTransform="matrix(.2 -.98 -.98 -.2 -847.32 -1551.02)" gradientUnits="userSpaceOnUse"><stop offset=".01"/><stop offset=".13" stop-opacity=".69"/><stop offset=".25" stop-opacity=".32"/><stop offset="1" stop-opacity="0"/></linearGradient><linearGradient id="b" x1="-1523.39" y1="-1277.05" x2="-1470.36" y2="-1384.85" xlink:href="#a"/><linearGradient id="c" x1="-1510.78" y1="-1270.86" x2="-1457.75" y2="-1378.66" xlink:href="#a"/><linearGradient id="d" x1="-1505.92" y1="-1291.15" x2="-1491.14" y2="-1298.62" xlink:href="#a"/><linearGradient id="e" x1="-1821.76" y1="-1342.24" x2="-1807.41" y2="-1213.16" gradientTransform="matrix(-.02 -1 -1 .02 -1120.76 -1607.64)" xlink:href="#a"/><linearGradient id="f" x1="-1837.7" y1="-1257.59" x2="-1784.67" y2="-1365.39" gradientTransform="matrix(-.02 -1 -1 .02 -1120.76 -1607.64)" xlink:href="#a"/><linearGradient id="g" x1="-1824.51" y1="-1251.1" x2="-1771.48" y2="-1358.9" gradientTransform="matrix(-.02 -1 -1 .02 -1120.76 -1607.64)" xlink:href="#a"/><linearGradient id="h" x1="-1819.86" y1="-1271.46" x2="-1805.08" y2="-1278.93" gradientTransform="matrix(-.02 -1 -1 .02 -1120.76 -1607.64)" xlink:href="#a"/><linearGradient id="i" x1="-1841.23" y1="-1191.38" x2="-1826.89" y2="-1062.3" gradientTransform="matrix(-.02 -1 -1 .02 -1120.76 -1607.64)" xlink:href="#a"/><linearGradient id="j" x1="-1857.29" y1="-1106.88" x2="-1804.26" y2="-1214.68" gradientTransform="matrix(-.02 -1 -1 .02 -1120.76 -1607.64)" xlink:href="#a"/><linearGradient id="k" x1="-1843.95" y1="-1100.32" x2="-1790.91" y2="-1208.12" gradientTransform="matrix(-.02 -1 -1 .02 -1120.76 -1607.64)" xlink:href="#a"/><linearGradient id="l" x1="-1839.21" y1="-1120.69" x2="-1824.43" y2="-1128.16" gradientTransform="matrix(-.02 -1 -1 .02 -1120.76 -1607.64)" xlink:href="#a"/><linearGradient id="m" x1="156.15" y1="-281.47" x2="141.88" y2="-326.33" gradientTransform="matrix(1 0 0 -1 -36.87 -154.16)" xlink:href="#a"/><linearGradient id="n" x1="214.39" y1="-393.33" x2="231.15" y2="-242.51" gradientTransform="matrix(1 0 0 -1 -36.87 -154.16)" xlink:href="#a"/><linearGradient id="o" x1="196.41" y1="-294.29" x2="258.37" y2="-420.25" gradientTransform="matrix(1 0 0 -1 -36.87 -154.16)" xlink:href="#a"/><linearGradient id="p" x1="211.05" y1="-287.09" x2="273.01" y2="-413.04" gradientTransform="matrix(1 0 0 -1 -36.87 -154.16)" xlink:href="#a"/><linearGradient id="q" x1="216.75" y1="-311" x2="234.02" y2="-319.73" gradientTransform="matrix(1 0 0 -1 -36.87 -154.16)" xlink:href="#a"/></defs><path d="M327.5 263.2c-7.7 11-19.1 19.7-32.1 22.6-15 3.3-30.5-1-45.2-5.2-21.7-6.2-44.1-12.3-66.6-10.3-37.4 3.4-70.6 29.1-108.2 29.9A85.05 85.05 0 0 1 12.9 274a47.7 47.7 0 0 1-10.2-15.3c-2.5-6.6-2.9-14-2.5-21.1a107.3 107.3 0 0 1 17.3-52l.2-.4a110.26 110.26 0 0 0 17.2-53.6c.3-6.9 0-13.9.5-20.8.9-13.2 4.8-26.1 10-38.3C53.1 54.7 64 38 79.2 26.2c10.3-8.1 22.3-13.7 34.2-19.2 6.1-2.8 12.3-5.7 19-6.6a54.61 54.61 0 0 1 14 .3 116.49 116.49 0 0 1 11.8 2.1 139.19 139.19 0 0 1 61.1 31.5c18.3 16.2 33.6 34.4 48.8 53.5 20.8 26.1 44.7 50.3 59.6 80.1a123.83 123.83 0 0 1 7.2 17.7c8.4 26.1 8.2 55.4-7.4 77.6z" transform="translate(-.07 -.09)" fill="#43b883" opacity=".18" style="isolation:isolate"/><path d="M327.5 263.2c-7.7 11-19.1 19.7-32.1 22.6-15 3.3-30.5-1-45.2-5.2-21.7-6.2-44.1-12.3-66.6-10.3-37.4 3.4-70.6 29.1-108.2 29.9A85.05 85.05 0 0 1 12.9 274a47.7 47.7 0 0 1-10.2-15.3c-2.5-6.6-2.9-14-2.5-21.1a107.3 107.3 0 0 1 17.3-52h317.4c8.4 26.1 8.2 55.4-7.4 77.6z" transform="translate(-.07 -.09)" fill="#43b883" opacity=".38" style="isolation:isolate"/><path d="M56.62 224.23a2.81 2.81 0 0 1 .25.74c.31 1.58-.75 3.12-2 4.13A38.82 38.82 0 0 0 51 232c-3.42 3.58.46 7.46 3.37 9.62 10.4 7.7 24.1 9.6 37.1 8.8s25.7-4.1 38.5-5.6c19-2.2 38.5-.6 57.2-4.9 4.4-1 8.9-2.4 12.2-5.4s5.3-8 3.5-12.2c-1.29-3.07-9.9-6.53-7.75-9.49.92-1.27 2.59-1.7 4.13-2s3.2-.66 4.22-1.85c.84-1 1.12-2.38 2.11-3.19a5.33 5.33 0 0 1 3.27-.85c3.53-.14 7.24-.31 10.27-2.14s5-5.93 3.28-9a8.24 8.24 0 0 0-4.73-3.42c-4.08-1.37-8.49-1.27-12.78-.93a120.47 120.47 0 0 0-33.53 7.55c-2 .77-4 1.59-6.06 2.18a54.42 54.42 0 0 1-7.29 1.36c-11.65 1.65-23.37 4.19-35 5.13a240.73 240.73 0 0 0-25.06 3.74c-3.48.65-7.22 1.84-10.75 1.49-3.88-.38-6.58-2.7-10.07-4.13-2.74-1.12-5.77-1.21-8.74-1.28a90.88 90.88 0 0 0-15.12.49 47.55 47.55 0 0 0-12 3.44c-2.28 1-4.79 2.59-4.93 5.08a4.8 4.8 0 0 0 2 3.84 11.52 11.52 0 0 0 4.07 1.82 41.41 41.41 0 0 0 8 1.43 14.25 14.25 0 0 1 3.91.61 4.32 4.32 0 0 1 2.3 2.03z" transform="translate(-.07 -.09)" fill="#43b883" opacity=".18" style="isolation:isolate"/><path d="M277.63 212.61c0 4.9-10.8 9-24.2 9s-24.2-4-24.2-9c0-.6-.3-5.9 0-6.5 2.2-4.1 12.5-2.5 24.2-2.5 11.3 0 21.3-2.6 24 1.3.4.7.2 7 .2 7.7z" fill="#fff"/><path d="M277.63 212.61c0 4.9-10.8 9-24.2 9s-24.2-4-24.2-9c0-.6-.3-5.9 0-6.5 2.2-4.1 12.5-2.5 24.2-2.5 11.3 0 21.3-2.6 24 1.3.4.7.2 7 .2 7.7z" fill="#43b883"/><ellipse cx="253.43" cy="206.21" rx="24.2" ry="9" fill="#fff"/><path d="M265.03 137.31v63.2a2.39 2.39 0 0 1-2.5 2.4h-2.6a3 3 0 0 1-3-3v-62.7h8.1z" fill="#fff"/><path d="M265.1 140.8v59.8a2.39 2.39 0 0 1-2.5 2.4h-1.5v-28.7a6.48 6.48 0 0 1-4.1.8l1.9-32.2z" transform="translate(-.07 -.09)" fill="#43b883" opacity=".39" style="isolation:isolate"/><path d="M142.43 167.81c10.4 2.1 17.6 9.6 15.5 20s-11.2 15.1-21.6 13-18.2-10.3-16.1-20.7 11.8-14.4 22.2-12.3z" fill="#43b883"/><path d="M142.5 167.9a24.06 24.06 0 0 1 8.9 3.7 15.91 15.91 0 0 1 2.4 2 14.6 14.6 0 0 1 4.2 7.8 12.41 12.41 0 0 1 .3 2.7 16.37 16.37 0 0 1-.4 3.8 5.73 5.73 0 0 1-.4 1.4l-.3.9a17.82 17.82 0 0 1-3.2 5.7 16.68 16.68 0 0 1-2.8 2.5c-4 2.8-9.3 3.6-15 2.5-7.6-1.6-13.9-6.4-15.8-13a16.73 16.73 0 0 1-.3-7.7 14 14 0 0 1 .9-2.9c.1-.3.3-.6.4-.9a15.3 15.3 0 0 1 4.5-5.6c4.5-3.2 10.4-4.1 16.6-2.9z" transform="translate(-.07 -.09)" fill="url(#a)"/><path d="M144.4 179.2c1.2-.1 2.5-.4 3.6.1a9.29 9.29 0 0 0 1 .5 8.64 8.64 0 0 0 2.1.7l3 .7a5.72 5.72 0 0 0 3 0 3.4 3.4 0 0 1 1 .1 12.41 12.41 0 0 1 .3 2.7 1.41 1.41 0 0 1-.9.1c-.3-.1-.5-.5-.7-.7-.7-.5-1.7.1-2.5.4a5 5 0 0 1-3.4-.6l-5.1-2.1a4.87 4.87 0 0 0-1.1-.4 4.1 4.1 0 0 0-1.1.1c-1.2.2-2.4.3-3.6.5a8.68 8.68 0 0 1-2.8.1c-.6-.1-1.2-.4-1.8-.5-1.6-.3-3.3.3-4.9-.1a13.36 13.36 0 0 1-1.8-.7 7.17 7.17 0 0 0-5-.1 1.45 1.45 0 0 1-1.1.1c-.4-.1-.7-.5-1.1-.5a.78.78 0 0 0-.6.9v.1a2.54 2.54 0 0 0 .8 1c1.7 1.5 3.6 3.1 5.8 3.4a10.47 10.47 0 0 1 3 .5 8 8 0 0 0 1.6.8c.5.2 1.1.1 1.7.3a9.74 9.74 0 0 1 2.4 1.5 8.53 8.53 0 0 0 3.5.8c3.4.2 6.8.3 10.1.2a9.88 9.88 0 0 1 3.8.4 4.8 4.8 0 0 0 1.7.5 2.66 2.66 0 0 0 1.2-.3l1.2-.4-.3.9a6.41 6.41 0 0 1-3 .8c-1-.1-2-.1-3.1-.1a14.35 14.35 0 0 1-2.2.4 12.1 12.1 0 0 1-1.9-.1c-4.1-.5-8.5.6-12.4-.9-2.8-1.1-5.1-3.4-8.1-3.9a15.52 15.52 0 0 1-2.1-.4c-1.4-.6-2.7-3.2-4.1-3.1a14.19 14.19 0 0 0 1 2.9 1.61 1.61 0 0 0 .4.7 1.09 1.09 0 0 0 1.5 0c-.1 1.7 1.5 3 3 3.8a2.45 2.45 0 0 0 1.6.6c.4 0 .7-.2 1-.1a.9.9 0 0 1 .6.6 7.56 7.56 0 0 0 2.5 1.9 12.27 12.27 0 0 0 2.6 1.2 3 3 0 0 0 2.7-.6 3 3 0 0 0 2.3 1.5 8.87 8.87 0 0 1 2.8.7 1.08 1.08 0 0 0 .7.3 2 2 0 0 0 .8-.1c1.1-.2 2 .5 3.1.8 1.9.6 3.9-.1 5.8-.8l1.3-.5a16.68 16.68 0 0 1-2.8 2.5c-1.1.1-2.2-.4-3.3-.3l-1.3.3a8.6 8.6 0 0 1-1.6-.1 19.09 19.09 0 0 1-4.1-1.1 4.36 4.36 0 0 0-3.9-1.1 12.67 12.67 0 0 1-4.3-.5 1.61 1.61 0 0 1-.9-.3 5.5 5.5 0 0 1-.9-.7c-1.8-1.4-4.4-1.4-6.5-2.6-1.7-1-2.8-2.6-4.1-4.2a16.73 16.73 0 0 1-.3-7.7 14 14 0 0 1 .9-2.9 6.29 6.29 0 0 0 4.2 1.2 12.66 12.66 0 0 0 1.8-.6 13.51 13.51 0 0 1 6-.1l7.4 1a10.91 10.91 0 0 0 3.9.6z" transform="translate(-.07 -.09)" fill="url(#b)"/><path d="M151.5 171.6a15.91 15.91 0 0 1 2.4 2 1.88 1.88 0 0 0-.8-.2c-.6 0-1 .6-1.6.6a2.93 2.93 0 0 1-1-.3 4.45 4.45 0 0 0-2.3-.3c-1.7 0-3.3.3-5 .3a8.29 8.29 0 0 1-4.8-1.3c-.8-.6-1.6-1.3-2.5-1.1a2.18 2.18 0 0 0-.8.5 9.13 9.13 0 0 1-4.2 1.7h-.9c-.2 0-.4-.1-.6-.1a9.46 9.46 0 0 0-3.3.5c-.4.1-.7.1-1.1.2a6 6 0 0 0-1.5.9l-1.9 1.4a15.3 15.3 0 0 1 4.5-5.6 6.75 6.75 0 0 1 1.4.2c2.8.4 5.6-.7 8.4-.7 3.4 0 6.8 1.4 10.2 1.2a21.3 21.3 0 0 1 2.5-.3 6.81 6.81 0 0 1 2.9.4z" transform="translate(-.07 -.09)" fill="url(#c)"/><path d="M120.3 180.6a7 7 0 0 1-1.9-.6 1.38 1.38 0 0 1-.4-.3.44.44 0 0 1-.1-.5.49.49 0 0 1 .7-.1c.2.1.4.3.6.4a1.36 1.36 0 0 0 1.6-.1l-.2 1.3" transform="translate(-.07 -.09)" fill="url(#d)"/><path d="M208.93 166.11c10.6-.2 19.3 5.4 19.5 16s-7.5 17.2-18.2 17.4-20-6-20.3-16.6 8.4-16.6 19-16.8z" fill="#43b883"/><path d="M209 166.2a23.48 23.48 0 0 1 9.5 1.6 24.37 24.37 0 0 1 2.8 1.4 14.59 14.59 0 0 1 6.7 9.2 23.2 23.2 0 0 1 .5 3.8v1.5a2.77 2.77 0 0 1-.1.9 17.52 17.52 0 0 1-1.8 6.3 12.88 12.88 0 0 1-2.2 3c-3.3 3.6-8.2 5.6-14 5.7-7.8.2-15-3.2-18.3-9.2a14.94 14.94 0 0 1-2-7.4 15.14 15.14 0 0 1 .2-3 3.55 3.55 0 0 1 .2-1 14.71 14.71 0 0 1 3.2-6.5c3.4-4 9-6.2 15.3-6.3z" transform="translate(-.07 -.09)" fill="url(#e)"/><path d="M213.3 176.7c1.2-.3 2.4-.9 3.6-.7l1.1.3a8.2 8.2 0 0 0 2.2.2h3.1a7.57 7.57 0 0 0 1.5-.1c.5-.1 1-.4 1.5-.5a3.4 3.4 0 0 1 1-.1 11.42 11.42 0 0 1 .9 2.6 1.4 1.4 0 0 1-.9.3c-.3-.1-.5-.4-.9-.5-.8-.4-1.6.5-2.4.9a5.66 5.66 0 0 1-3.4.2l-5.4-1a4.87 4.87 0 0 0-1.2-.1c-.3.1-.7.2-1 .3l-3.5 1.4a7.67 7.67 0 0 1-2.7.7c-.6 0-1.3-.1-1.9-.1-1.6 0-3.1 1-4.8.9a12.5 12.5 0 0 1-1.9-.3 7.67 7.67 0 0 0-4.9 1 1.5 1.5 0 0 1-1.1.4c-.4 0-.8-.4-1.2-.2a.82.82 0 0 0-.4 1v.1a1.59 1.59 0 0 0 1 .8c2 1.1 4.2 2.2 6.5 2.1a10.12 10.12 0 0 1 3-.2c.6.2 1.1.3 1.7.5a9.7 9.7 0 0 0 1.7-.1 11.42 11.42 0 0 1 2.6.9 7.31 7.31 0 0 0 3.6 0c3.3-.6 6.6-1.2 9.9-2a12 12 0 0 1 3.8-.5 5.46 5.46 0 0 0 1.8.1 3.7 3.7 0 0 0 1.1-.5l1.1-.7a2.77 2.77 0 0 1-.1.9 7.2 7.2 0 0 1-2.7 1.5c-1 .3-2 .2-3 .6-.7.2-1.3.7-2 .9a6.28 6.28 0 0 1-1.9.3c-4.1.4-8.2 2.5-12.3 1.9-3-.4-5.8-2.2-8.8-2a15.48 15.48 0 0 1-2.2.1c-1.5-.2-3.3-2.5-4.7-2.1a14 14 0 0 0 1.6 2.6 2.65 2.65 0 0 0 .5.6 1.12 1.12 0 0 0 1.5-.3c.2 1.7 2.1 2.6 3.7 3.1a2.46 2.46 0 0 0 1.7.2c.3-.1.6-.4 1-.3a2 2 0 0 1 .8.4 11.08 11.08 0 0 0 2.9 1.4 12.66 12.66 0 0 0 2.8.6 3.25 3.25 0 0 0 2.5-1.1 3.07 3.07 0 0 0 2.6 1 9.42 9.42 0 0 1 2.9.1 1.88 1.88 0 0 0 .8.2 2.61 2.61 0 0 0 .8-.3c1-.4 2.1 0 3.1.1 2 .1 3.8-1 5.5-2.1l1.2-.7a12.88 12.88 0 0 1-2.2 3c-1 .3-2.2.1-3.3.4-.4.1-.8.4-1.2.5a4.14 4.14 0 0 1-1.6.2 15.53 15.53 0 0 1-4.3-.2 4.26 4.26 0 0 0-4.1-.1 15.35 15.35 0 0 1-4.3.5 2.77 2.77 0 0 1-.9-.1c-.3-.1-.7-.3-1-.4-2.1-1-4.6-.4-6.9-1.1-1.9-.6-3.3-2-4.9-3.1a14.94 14.94 0 0 1-2-7.4 15.14 15.14 0 0 1 .2-3 6.64 6.64 0 0 0 4.4.3 15.05 15.05 0 0 0 1.7-1 13.15 13.15 0 0 1 5.9-1.4l7.5-.6a31.64 31.64 0 0 1 3.7-1.2z" transform="translate(-.07 -.09)" fill="url(#f)"/><path d="M218.6 167.8a24.37 24.37 0 0 1 2.8 1.4 1.1 1.1 0 0 0-.8 0c-.5.2-.9.8-1.4.9a4.1 4.1 0 0 1-1.1-.1 6.52 6.52 0 0 0-2.4.2c-1.6.4-3.2 1-4.8 1.4a8.18 8.18 0 0 1-4.9-.2c-.9-.4-1.8-.9-2.7-.5a4.35 4.35 0 0 0-.7.6 9.35 9.35 0 0 1-3.7 2.5 2.35 2.35 0 0 1-.8.2h-.6a9.08 9.08 0 0 0-3.1 1.2 4.67 4.67 0 0 0-1 .5 4.89 4.89 0 0 0-1.3 1.2l-1.6 1.8a14.71 14.71 0 0 1 3.2-6.5 6.15 6.15 0 0 1 1.4-.1c2.8-.3 5.3-1.9 8.1-2.6 3.3-.8 6.9-.1 10.2-1.1a22.5 22.5 0 0 1 2.4-.8 13.09 13.09 0 0 1 2.8 0z" transform="translate(-.07 -.09)" fill="url(#g)"/><path d="M190.1 183.5a5.84 5.84 0 0 1-1.9-.2.76.76 0 0 1-.5-.2c-.2-.1-.2-.3-.2-.5a.71.71 0 0 1 .6-.3c.2.1.5.2.7.3a1.39 1.39 0 0 0 1.5-.4v1.3" transform="translate(-.07 -.09)" fill="url(#h)"/><path d="M58.53 188.61c10.6-.2 19.3 5.4 19.6 16s-7.6 17.2-18.2 17.4-20-6-20.3-16.6 8.3-16.7 18.9-16.8z" fill="#43b883"/><path d="M58.6 188.7a23.77 23.77 0 0 1 9.5 1.6 24.37 24.37 0 0 1 2.8 1.4 14.81 14.81 0 0 1 5.8 6.6 11.42 11.42 0 0 1 .9 2.6 23.2 23.2 0 0 1 .5 3.8v1.5a2.77 2.77 0 0 1-.1.9 17.52 17.52 0 0 1-1.8 6.3 12.88 12.88 0 0 1-2.2 3c-3.3 3.6-8.2 5.6-14 5.7-7.8.2-15-3.2-18.3-9.2a14.94 14.94 0 0 1-2-7.4 15.14 15.14 0 0 1 .2-3 3.55 3.55 0 0 1 .2-1 14.71 14.71 0 0 1 3.2-6.5c3.4-4 9-6.2 15.3-6.3z" transform="translate(-.07 -.09)" fill="url(#i)"/><path d="M62.9 199.2c1.2-.3 2.4-.9 3.6-.7l1.1.3a8.58 8.58 0 0 0 2.3.2l3.1.1a7.57 7.57 0 0 0 1.5-.1c.5-.1 1-.4 1.5-.5a3.4 3.4 0 0 1 1-.1 11.42 11.42 0 0 1 .9 2.6 1.61 1.61 0 0 1-.9.3c-.3-.1-.6-.4-.9-.5-.8-.4-1.6.5-2.4.9a5.66 5.66 0 0 1-3.4.2l-5.4-1a4.87 4.87 0 0 0-1.2-.1 3.81 3.81 0 0 0-1 .3l-3.5 1.3a7.67 7.67 0 0 1-2.7.7c-.6 0-1.3-.1-1.9-.1-1.6 0-3.1 1-4.8.9a12.5 12.5 0 0 1-1.9-.3 7.67 7.67 0 0 0-4.9 1 1.5 1.5 0 0 1-1.1.4c-.4 0-.8-.3-1.2-.2a.82.82 0 0 0-.4 1v.1a1.59 1.59 0 0 0 1 .8c2 1.1 4.2 2.2 6.5 2.1a10.12 10.12 0 0 1 3-.2c.6.2 1.1.3 1.7.5.6 0 1.1-.1 1.7-.1a11.42 11.42 0 0 1 2.6.9 7.31 7.31 0 0 0 3.6 0c3.3-.6 6.7-1.2 9.9-2a12 12 0 0 1 3.8-.5 5.46 5.46 0 0 0 1.8.1 3.7 3.7 0 0 0 1.1-.5l1.1-.7a2.77 2.77 0 0 1-.1.9 7.2 7.2 0 0 1-2.7 1.5c-1 .3-2 .2-3 .6a17.6 17.6 0 0 1-2 .9 6.28 6.28 0 0 1-1.9.3c-4.1.4-8.2 2.5-12.3 1.9-3-.4-5.8-2.2-8.8-2a16.2 16.2 0 0 1-2.2.1c-1.5-.2-3.3-2.5-4.7-2.1a14.52 14.52 0 0 0 1.7 2.6 2.65 2.65 0 0 0 .5.6 1.1 1.1 0 0 0 1.5-.3c.3 1.7 2.1 2.5 3.7 3.1a2.46 2.46 0 0 0 1.7.2 1.69 1.69 0 0 1 1-.3 2 2 0 0 1 .8.4 8.37 8.37 0 0 0 2.9 1.3 12.66 12.66 0 0 0 2.8.6 3.25 3.25 0 0 0 2.5-1.1 3.19 3.19 0 0 0 2.6 1 9.42 9.42 0 0 1 2.9.1 1.88 1.88 0 0 0 .8.2c.3-.1.6-.1.8-.3 1-.4 2.1 0 3.2.1 2 .1 3.8-1 5.5-2l1.2-.7a16 16 0 0 1-2.2 3.1c-1 .3-2.2.1-3.3.4-.4.1-.8.4-1.2.5a4.14 4.14 0 0 1-1.6.2 12.46 12.46 0 0 1-4.3-.2 6.63 6.63 0 0 0-2.8-.5 6.47 6.47 0 0 0-1.3.4 15.35 15.35 0 0 1-4.3.5 2.77 2.77 0 0 1-.9-.1 4.67 4.67 0 0 1-1-.5c-2.1-1-4.7-.4-6.9-1.1-1.9-.6-3.3-2-4.9-3.2a14.94 14.94 0 0 1-2-7.4 15.14 15.14 0 0 1 .2-3 6.39 6.39 0 0 0 4.3.3 15.05 15.05 0 0 0 1.7-1 13.15 13.15 0 0 1 5.9-1.4l7.5-.6a27.9 27.9 0 0 1 3.5-1.1z" transform="translate(-.07 -.09)" fill="url(#j)"/><path d="M68.1 190.3a24.37 24.37 0 0 1 2.8 1.4 1.1 1.1 0 0 0-.8 0c-.5.2-.8.8-1.4.9a4.1 4.1 0 0 1-1.1-.1 5.83 5.83 0 0 0-2.3.2c-1.6.4-3.2 1-4.8 1.4a8.18 8.18 0 0 1-4.9-.2c-.9-.4-1.8-1-2.7-.5a4.35 4.35 0 0 0-.7.6 9.35 9.35 0 0 1-3.7 2.5 2.35 2.35 0 0 1-.8.2H47a9.08 9.08 0 0 0-3.1 1.2 4.67 4.67 0 0 0-1 .5 4.89 4.89 0 0 0-1.3 1.2c-.5.6-1 1.2-1.6 1.8a14.71 14.71 0 0 1 3.2-6.5 6.15 6.15 0 0 1 1.4-.1c2.8-.3 5.3-1.9 8.1-2.6 3.3-.8 6.9-.1 10.2-1.1a22.5 22.5 0 0 1 2.4-.8 8.77 8.77 0 0 1 2.8 0z" transform="translate(-.07 -.09)" fill="url(#k)"/><path d="M39.7 206a13.4 13.4 0 0 1-2-.1c-.2 0-.3-.1-.5-.2a.76.76 0 0 1-.2-.5c.1-.3.4-.3.6-.3s.5.2.7.3a1.44 1.44 0 0 0 1.5-.4v1.3" transform="translate(-.07 -.09)" fill="url(#l)"/><ellipse cx="193.43" cy="200.61" rx="23.1" ry="4.7" fill="#43b883" opacity=".18" style="isolation:isolate"/><path d="M80.83 216.31a49.42 49.42 0 0 0 4.3 9.7c1.3 2.4 2.6 4.9 4.7 6.5 4 3.1 9.7 2.6 14.8 1.9l13.9-2c2-.3 4.2-.7 5.6-2.2 1.5-1.7 1.5-4.2 1.7-6.4s.9-4.9 3.1-5.6a7.13 7.13 0 0 1 2.9-.2 114.1 114.1 0 0 0 18.5-.8 3 3 0 0 0 1.8-.6 2.93 2.93 0 0 0 .7-1.6 40.52 40.52 0 0 0-1.8-24.1 3.6 3.6 0 0 0-1.2-1.8 4.07 4.07 0 0 0-1.8-.5 102.07 102.07 0 0 0-24.1 1c-7.6 1.2-15 1.6-22.7 2.1-12.3.9-23.1 9-20.7 22.6a7.47 7.47 0 0 0 .3 2z" fill="#473f47"/><path d="M155.73 157.01a6.72 6.72 0 0 1-.4 2.4 7.21 7.21 0 0 1-1.9 2.4 7.34 7.34 0 0 1-6.1 2.1 9.32 9.32 0 0 1-3.1-1.3c-2.6-1.4-5.4-3.6-8.2-4.4-1.6-.5-4.5 0-5.3-1.8-.6-1.3-.6-3.5-.8-4.9-1.2-7.5-2.4-15-3.6-22.6 8.8 6.5 17.8 12.8 26.3 19.6a4.89 4.89 0 0 1 1.3 1.2 9.06 9.06 0 0 1 1.6 4.5c.1 1 .2 1.9.2 2.8z" fill="#fff"/><path d="M132.13 166.31c-.2 1.3-.2 2.7-.4 4-.9 7.4-3.7 14.8-2.5 22.3.3 1.7.7 3.5 0 5a6.07 6.07 0 0 1-3.5 2.6c-7 2.7-14.6 2.8-22.1 2.8-5.6 0-13.7.6-18.4-3-2-1.6-2.4-4-2.8-6.5-1.2-7.8-.8-15.9-.3-23.7.1-1 .1-2.1.2-3.1q.75-10.65 2.4-21.3c.8-5.1 1.9-10.6 5.8-14 5.1-4.6 14.2-6.8 20.9-7.1a23.49 23.49 0 0 1 6.5.5 28 28 0 0 1 8.3 4.1c3 2 5.8 3.8 6.9 7.2a41.64 41.64 0 0 1 2.1 12.2 40.23 40.23 0 0 1-1.3 11.5c-.4 1.9-1.2 3.6-1.6 5.5a3 3 0 0 1-.2 1z" fill="#fff"/><path d="M96.5 204c-1.5.3-7.7-2.4-8.4-2.6a22.45 22.45 0 0 1-2.7-1.3c-4.7-1.9-3.5-15.7-3.4-19.4 0-9.9-.6-20.3.6-30.1.5-3.8 1.1-7.6 2.8-11a14.35 14.35 0 0 1 5.1-5.8c3.1-2 4.2-.8 6.1 2a32.25 32.25 0 0 1 5.6 15 16.22 16.22 0 0 1-.1 4.4 20.77 20.77 0 0 1-3.6 7.3l-5 7.6a3.86 3.86 0 0 0-.8 2 3.4 3.4 0 0 0 .7 1.5 41.9 41.9 0 0 0 27.8 17.3c-.7 2.1-3 3.2-5.1 3.4a23 23 0 0 1-6.4-.9 10 10 0 0 0-6.4.4c-1.5.8-2.6 2.2-3.9 3.3s-3.2 1.9-4.7 1.1a5.6 5.6 0 0 0 1.6 4.6 1.56 1.56 0 0 1 .6.8.37.37 0 0 1-.4.4z" transform="translate(-.07 -.09)" fill="#020202" opacity=".1" style="isolation:isolate"/><path d="M129.33 118.51c-.7 1.3-1.5 2.6-2.2 3.8-1.8 2.9-4.4 5.2-7.9 5.1a8.52 8.52 0 0 1-2.3-.3l-.5-.1h-.2a5 5 0 0 0-1.2-.2h-.3c-1 .2-1.4 1.8-1.5 2.7a4.36 4.36 0 0 1-1.1 2.9l-.1.1a2.89 2.89 0 0 1-2.4.5 7 7 0 0 1-4.3-2.6 8.13 8.13 0 0 1-1.2-2.9 2.77 2.77 0 0 1-.1-.9 7.72 7.72 0 0 1 .2-1.5 19.45 19.45 0 0 1 .8-2.2c.7-1.4 1.4-2.8 2-4.2a14.16 14.16 0 0 1 .7-2.2 5.91 5.91 0 0 0 .6-1.4c.4-1.4 0-3 .3-4.4a23 23 0 0 1 1.4-4.2 16.91 16.91 0 0 1 5.4-6.7c4.3-3.1 10.7-3.5 14.8-.2a10.51 10.51 0 0 1 3.7 6.7c.6 4.4-2.5 8.5-4.6 12.2z" fill="#fdb9a9"/><path d="M91.03 158.71a2.11 2.11 0 0 1-.5 1.3l-1.6 2.4c-.1.1-.3.2-.4.3-.3.3-1.2 1.5-1.5 1.5s-.3-.2-.4-.4a43.15 43.15 0 0 0-8.6-9c.8-.7 1.6-1.4 2.5-2.1l1.8-1.5a2.28 2.28 0 0 1 1.2-.6 2 2 0 0 1 1.2.8l5.6 6.1a2.52 2.52 0 0 1 .7 1.2z" fill="#b2857f"/><path d="M103.33 146.01a33.33 33.33 0 0 1-1 5.5c-4.6 3.5-9 7.1-13.3 10.9-.1.1-.3.2-.4.3-.3.3-1.2 1.5-1.5 1.5s-.3-.2-.4-.4a43.15 43.15 0 0 0-8.6-9c-1.3-1-2.6-2.1-3.9-3.1a2.07 2.07 0 0 1-1-1.4 2 2 0 0 1 .3-1.1 50.83 50.83 0 0 1 12.6-15.1 15.49 15.49 0 0 1 3.7-2.6l.7-.2a21.66 21.66 0 0 1 2.5-.4 11 11 0 0 1 5.1.3c5.7 2.1 5.7 9.9 5.2 14.8z" fill="#fff"/><path d="M129.63 112.61a3.86 3.86 0 0 0 2.7-1.1c.1 1.2 2.1 1.3 2.8.4s.6-2.3.4-3.5a2.82 2.82 0 0 0 2.9-2.8 5 5 0 0 0-.2-1.2 3.51 3.51 0 0 1-.6-1.4 3 3 0 0 1 .4-1 3.31 3.31 0 0 0-.6-3.3 10.11 10.11 0 0 0-2.8-2.2 2.33 2.33 0 0 0 .2-3.2 6.14 6.14 0 0 0-2.9-1.9c-1.6-.6-3.5-1-5.1-.2a4.85 4.85 0 0 0-6-.8 2.11 2.11 0 0 1-1.3.5 1.8 1.8 0 0 1-.9-.4 7.33 7.33 0 0 0-3.8-1.4 2.89 2.89 0 0 0-2.8 2.5 2.58 2.58 0 0 0-2.5 1.3 2.18 2.18 0 0 1-.5.8c-.4.3-.9.1-1.3.1a3.29 3.29 0 0 0-1.5 6.4 2.86 2.86 0 0 0-.1 2.4c.3.9 1 1.2 1.5 1.9.3.4.2.4 0 1a13.07 13.07 0 0 0-.3 5.2c.1.8.3 1.6.4 2.4a15.33 15.33 0 0 1-.2 3.7l2.8-4.2a.35.35 0 0 0 .1-.2.37.37 0 0 0-.1-.3 4.06 4.06 0 0 1 .1-5.1 1.68 1.68 0 0 1 1.5-.7c.7.1 1 .9 1.2 1.5a7.61 7.61 0 0 1 .3 2.1 11.85 11.85 0 0 1 2.5-2.5c.4-.3 1-.8 1.4-.5s.5 1.3.6 1.7a7.54 7.54 0 0 0 2.4-.8 3.61 3.61 0 0 0 .9 3.8c1.1.9 3.1.5 3.4-.9-.1.6 2.8.2 3 .2a3.09 3.09 0 0 0 2 1.7z" fill="#473f47"/><path d="M112.73 126.21a20.16 20.16 0 0 0 2.3.7h-.3c-1 .2-1.4 1.8-1.5 2.7a4.36 4.36 0 0 1-1.1 2.9 3.55 3.55 0 0 1-.9-.4 2.34 2.34 0 0 1-.7-.7 5.88 5.88 0 0 1-.3-6.6 8.87 8.87 0 0 0 2.5 1.4z" fill="#d49b8e"/><path d="M138.53 137.91a11.84 11.84 0 0 1-4.5 4.9c-9.7 6-27.9.9-27.9.9-8-5-8-12.4-8-12.4l1.1-.2 41-7.6.8-.1c0-.1 3.8 1.4-2.5 14.5z" fill="#43b883"/><path d="M134.1 142.9c-9.7 6-27.9.9-27.9.9-8-5-8-12.4-8-12.4s10.5 15.1 35.9 11.5z" transform="translate(-.07 -.09)" fill="url(#m)"/><path d="M127.83 141.21c-13.4 1.9-24.8-6.4-28.6-10.1l41-7.6c.4 3.6.9 15.7-12.4 17.7z" fill="#43b883"/><path d="M127.9 141.3c-13.4 1.9-24.8-6.4-28.6-10.1l41-7.6c.4 3.6.9 15.7-12.4 17.7z" transform="translate(-.07 -.09)" fill="#fff" opacity=".51" style="isolation:isolate"/><path d="M122.43 145.21a24.26 24.26 0 0 1-1.4 2 48.84 48.84 0 0 1-4.9 5.3l-2 2c-5.8 5.8-11.6 11.6-17.7 17l-2.2 1.9a17.22 17.22 0 0 1-5.4 3.1 13.16 13.16 0 0 1-9.9-1.2 12.18 12.18 0 0 1-6.6-8.8 11.18 11.18 0 0 1 2.3-7.7 19.35 19.35 0 0 1 3.4-3.6 43.15 43.15 0 0 1 8.6 9 .78.78 0 0 0 .4.4c.3 0 1.2-1.2 1.5-1.5a1.38 1.38 0 0 1 .4-.3l-1.2 1.8c1.5-.2 2.7-1.3 3.9-2.3 3.3-2.8 7-5.1 10.3-7.9s6.1-6.4 6.9-10.7a5.46 5.46 0 0 1 .6-1.8 1.17 1.17 0 0 1 1.7-.3c.2.2.3.5.6.6a1 1 0 0 0 .9-.2c1.7-1.1 3.3-2.6 5.2-3.3s4.5-.4 5.5 1.5.1 3.3-.9 5zm31.6 4.4-4.6-3.3a9.15 9.15 0 0 1-2.5-2.3c-1.8-2.5-1-5.9-1.6-8.9a10.24 10.24 0 0 0-5.6-7.2 2.66 2.66 0 0 0-1.2-.3c-.9.1-1.4 1-1.7 1.9a16.35 16.35 0 0 0-.9 4.5c-.9-.7-2.2.4-2.2 1.6a7.1 7.1 0 0 0 1.3 3.1 20.32 20.32 0 0 1 1.4 3.9 88 88 0 0 0 4.5 12.1 28 28 0 0 0 3.7 6.5c1.9 2.3 3.7 3.7 6.7 3 6.2-1.4 2.8-9 3.5-13.1a.64.64 0 0 0 0-.6.78.78 0 0 0-.4-.4zm-11.8 55.7c-3.7 3.8-8.2 7.1-12.1 10.6a91.9 91.9 0 0 0-9.2 9.5 4.66 4.66 0 0 0-1.3 2.5c-.1 1.8 1.7 3.1 3.3 4 4.3 2.3 9.3 4.5 13.9 3a3.22 3.22 0 0 0 2.1-1.5 1.83 1.83 0 0 0-.3-2.4c1.1-.5.3-2.3-.8-2.7s-2.5-.5-3.3-1.3l10.4-6.5c4.1-2.6 8.4-5.3 10.9-9.4a25.33 25.33 0 0 0 2.4-5.3 16 16 0 0 0 1.1-7.5 8.26 8.26 0 0 0-8.1-6.8.75.75 0 0 0-.7.5v.1a30.67 30.67 0 0 1-4.6 9c-1.1 1.4-2.4 2.8-3.7 4.2z" fill="#fdb9a9"/><path d="M142.23 205.31c-3.7 3.8-8.2 7.1-12.1 10.6a91.9 91.9 0 0 0-9.2 9.5 4.66 4.66 0 0 0-1.3 2.5c-.1 1.8 1.7 3.1 3.3 4 4.3 2.3 9.3 4.5 13.9 3a3.22 3.22 0 0 0 2.1-1.5 1.83 1.83 0 0 0-.3-2.4c1.1-.5.3-2.3-.8-2.7s-2.5-.5-3.3-1.3l10.4-6.5c4.1-2.6 8.4-5.3 10.9-9.4a25.33 25.33 0 0 0 2.4-5.3 16 16 0 0 0 1.1-7.5 8.26 8.26 0 0 0-8.1-6.8.75.75 0 0 0-.7.5v.1a30.67 30.67 0 0 1-4.6 9c-1.1 1.4-2.4 2.8-3.7 4.2z" fill="#d49b8e"/><path d="M104.83 219.31c-2.3 1-4.7 2.1-6 4.2-1.4 2.3-1 5.3-.1 7.8a7.55 7.55 0 0 0 1.3 2.3c1.3 1.3 3.3 1.5 5.1 1.5 4 .2 8 .4 11.8-.5 5.4-1.2 10.2-4.5 15.1-7a54.23 54.23 0 0 1 8.3-3.5 84.59 84.59 0 0 1 11.9-3.4c3.6-.6 6.8-3 10.5-2.9a6 6 0 0 0 1.9 0 4.63 4.63 0 0 0 1.8-1.3 5.26 5.26 0 0 0 1.6-2 2.13 2.13 0 0 0-.4-2.4c-.5-.4-1.3-.6-1.3-1.3a2.18 2.18 0 0 1 .5-.8c1.1-1 1.5-3 .3-3.8-.8-.6-2.1-.4-2.8-1.2a3 3 0 0 0-.5-.7 1.61 1.61 0 0 0-.9-.3c-2-.1-3.7 1.4-5.3 2.6a40.12 40.12 0 0 1-6.5 4.2 27.63 27.63 0 0 1-5.4 1.6 71.07 71.07 0 0 1-15.1 3.1c-4.8.4-9.5.4-14.3 1.1-1.7.2-3.3.3-5 .5a33.22 33.22 0 0 0-6.5 2.2z" fill="#fdb9a9"/><path d="m132.73 126.51-.1 1v.2c0 .1.1.1.2.1a3.55 3.55 0 0 0 1 .2 14.31 14.31 0 0 0-1.1-1.5m-2.7 6.2-.1 1v.2c0 .1.1.1.2.1a3.55 3.55 0 0 0 1 .2 14.31 14.31 0 0 0-1.1-1.5m-6.7-3.5-.1 1v.2c0 .1.1.1.2.1a3.55 3.55 0 0 0 1 .2c-.4-.5-.7-1-1.1-1.5m-7.5 2.1-.1 1v.2c0 .1.1.1.2.1a3.55 3.55 0 0 0 1 .2 8.28 8.28 0 0 0-1.1-1.5m4.7-1.6-.1 1v.2c0 .1.1.1.2.1a3.55 3.55 0 0 0 1 .2 7.17 7.17 0 0 0-1.1-1.5m-6.6 5.9-.1 1v.2a.35.35 0 0 0 .2.1 3.55 3.55 0 0 0 1 .2 8.28 8.28 0 0 0-1.1-1.5" fill="#473f47"/><path d="M203.23 182.81c0 12.4-6.8 22.4-19.2 22.4s-19.9-9.3-19.9-21.6 7.5-23.3 19.9-23.3 19.2 10.1 19.2 22.5z" fill="#43b883"/><path d="M203.3 182.9a28.1 28.1 0 0 1-2.1 11.1 26.85 26.85 0 0 1-1.8 3.3 17.22 17.22 0 0 1-7.9 6.7 17.6 17.6 0 0 1-3 1 21.18 21.18 0 0 1-4.4.5 9.15 9.15 0 0 1-1.7-.1 4.1 4.1 0 0 1-1.1-.1 21.43 21.43 0 0 1-7.3-2.3 15.17 15.17 0 0 1-3.5-2.6c-4.1-3.9-6.4-9.8-6.4-16.6 0-9.1 4.1-17.4 11.2-21.1a19 19 0 0 1 8.8-2.1 19.83 19.83 0 0 1 3.5.3c.4.1.8.1 1.1.2a16.92 16.92 0 0 1 7.5 3.9c4.7 3.9 7.1 10.5 7.1 17.9z" transform="translate(-.07 -.09)" fill="url(#n)"/><path d="M190.9 187.6c.4 1.4 1 2.8.8 4.2-.1.4-.3.8-.4 1.3a11.53 11.53 0 0 0-.3 2.6c0 1.2-.1 2.4-.1 3.6a10.87 10.87 0 0 0 .1 1.8 11.5 11.5 0 0 0 .6 1.7 4.87 4.87 0 0 1 .1 1.2 17.6 17.6 0 0 1-3 1 1.69 1.69 0 0 1-.3-1c.1-.4.4-.6.6-1 .4-.9-.6-1.9-1-2.8a6.1 6.1 0 0 1-.1-4c.4-2.1.8-4.2 1.3-6.3a3.21 3.21 0 0 0 .1-1.4l-.3-1.2c-.5-1.4-1-2.7-1.4-4.1a8.24 8.24 0 0 1-.7-3.1c0-.7.2-1.5.2-2.2 0-1.9-1-3.7-1-5.6a17 17 0 0 1 .4-2.2 8.63 8.63 0 0 0-1-5.7 2 2 0 0 1-.4-1.3c0-.5.4-.9.3-1.4a.8.8 0 0 0-1.2-.4h-.1a3.46 3.46 0 0 0-1 1.1c-1.3 2.3-2.7 4.8-2.6 7.5a10.36 10.36 0 0 1 .1 3.5c-.2.7-.4 1.3-.6 2a13.4 13.4 0 0 0 .1 2c-.1 1.1-.8 2-1.1 3.1a9.49 9.49 0 0 0-.1 4.1c.6 3.9 1.3 7.8 2.1 11.6a10.84 10.84 0 0 1 .4 4.4 6.8 6.8 0 0 0-.2 2 3.1 3.1 0 0 0 .6 1.3l.8 1.3a4.1 4.1 0 0 1-1.1-.1 7.45 7.45 0 0 1-1.6-3.2c-.3-1.2-.2-2.4-.6-3.5-.3-.8-.7-1.6-1-2.4a8.33 8.33 0 0 1-.3-2.2c-.4-4.9-2.7-9.6-1.9-14.4.6-3.5 2.7-6.7 2.6-10.2a10.45 10.45 0 0 1 0-2.5c.3-1.7 3-3.8 2.6-5.5a19.23 19.23 0 0 0-3.1 1.8 1.34 1.34 0 0 0-.7.6 1.17 1.17 0 0 0 .3 1.7c-2 .3-3 2.4-3.7 4.3a3.4 3.4 0 0 0-.3 2c.1.4.4.7.4 1.1a4.05 4.05 0 0 1-.5.9 8.45 8.45 0 0 0-1.6 3.3 12.26 12.26 0 0 0-.8 3.3 3.51 3.51 0 0 0 1.3 3 3.54 3.54 0 0 0-1.2 3 13 13 0 0 1-.1 3.4 2.92 2.92 0 0 0-.2.9l.3.9c.4 1.2-.1 2.4-.2 3.7-.2 2.3 1 4.4 2.3 6.4l.8 1.4a15.17 15.17 0 0 1-3.5-2.6c-.4-1.2 0-2.6-.4-3.8-.2-.5-.4-.9-.6-1.4a5.54 5.54 0 0 1-.2-1.8 16.66 16.66 0 0 1 .4-5 8.76 8.76 0 0 0 .7-3.2 8.33 8.33 0 0 0-.4-1.5 16.66 16.66 0 0 1-.4-5 4.1 4.1 0 0 1 .1-1.1 3.38 3.38 0 0 1 .6-1.2c1.2-2.4.6-5.4 1.4-8 .7-2.2 2.4-3.8 3.8-5.6a19 19 0 0 1 8.8-2.1 19.83 19.83 0 0 1 3.5.3c-.6 1.7-1.1 3.5-.4 5.1a12.81 12.81 0 0 0 1.1 2 17.8 17.8 0 0 1 1.5 6.9l.6 8.8a6.49 6.49 0 0 0 0 3.9z" transform="translate(-.07 -.09)" fill="url(#o)"/><path d="M201.2 194a26.85 26.85 0 0 1-1.8 3.3 1.7 1.7 0 0 0 0-1c-.2-.6-.9-1-1-1.7a4.87 4.87 0 0 1 .1-1.2 8.78 8.78 0 0 0-.1-2.8c-.4-1.9-1.1-3.8-1.5-5.7a9.63 9.63 0 0 1 .4-5.8c.4-1 1.2-2.1.7-3.1a2.7 2.7 0 0 0-.7-.8 10.93 10.93 0 0 1-2.9-4.4 3.55 3.55 0 0 1-.2-1v-.7c0-1.3-.8-2.4-1.4-3.6-.2-.4-.3-.8-.5-1.2a5 5 0 0 0-1.4-1.5l-2.1-1.9a16.92 16.92 0 0 1 7.5 3.9 8.6 8.6 0 0 1 .1 1.6c.2 3.3 2.1 6.3 2.8 9.5.8 3.9-.1 8.1 1.1 11.9a22.94 22.94 0 0 1 .9 2.8 9.7 9.7 0 0 1 0 3.4z" transform="translate(-.07 -.09)" fill="url(#p)"/><path d="M183.6 160.4a17.85 17.85 0 0 1 .2-2.3 1.42 1.42 0 0 1 .2-.6.45.45 0 0 1 .6-.2.52.52 0 0 1 .3.7c-.1.3-.3.5-.4.8a1.79 1.79 0 0 0 .5 1.8h-1.5" transform="translate(-.07 -.09)" fill="url(#q)"/><path d="M273.53 136.11c0 20.5-15 35.8-24.8 35.8s-10.7-15.3-10.7-35.8.3-37.1 10.1-37.1 25.4 16.6 25.4 37.1z" fill="#fff"/><path d="M241.67 117.91a2.59 2.59 0 0 1 1.6 1.9c.3 1.2-.3 2.5-.8 3.7a11.73 11.73 0 0 0 1 10c-.2.5-1 .1-1.4-.3a27.48 27.48 0 0 0-7.4-6.2 2.39 2.39 0 0 0-1.4-.5c-1.1 0-1.7 1.3-2 2.4a22.33 22.33 0 0 0 .1 10.9 5.32 5.32 0 0 0 1.7 3.1 2.57 2.57 0 0 0 3.3 0c.4-.4.5-1 .8-1.4s1-.7 1.4-.4.4 1.2.9 1.6c1 .9 2.9-1.4 3.6 0 .4.8-.4 2.6-.6 3.4-.4 1.1-.8 2.3-1.1 3.4a36 36 0 0 0-1.5 6.3 7.08 7.08 0 0 0 0 2.9 7.22 7.22 0 0 0 .9 2 6.82 6.82 0 0 0 6.7 2.9 12.47 12.47 0 0 0 2.7-1 5.39 5.39 0 0 0 1.3-.7c3-2.3 6.1-4.6 8-8.1a8.18 8.18 0 0 0 1.1-5.1c-1 2.4-2.1 4.9-4.4 6.2a17.63 17.63 0 0 0 2.8-7.3l-2.1 2.6a3.82 3.82 0 0 1-.9.9 1.26 1.26 0 0 1-1.2.1 1.21 1.21 0 0 1-.5-.5c-1.1-1.4-1.8-3-2.8-4.5s-2.1-2.7-3-4.2c-.3-.5-.6-1.2-.2-1.7a1 1 0 0 1 .9-.4 8.66 8.66 0 0 1 3.2.6 2.83 2.83 0 0 0 3-.7 9 9 0 0 0 1.7 2.6 2.79 2.79 0 0 0 2.9.5 3.47 3.47 0 0 0 1.5-2.4 32 32 0 0 0 1.3-9.2 8.68 8.68 0 0 0-.9-4.5c-.1-.2 0-.4-.1-.5a75.18 75.18 0 0 0-5-7.5 28.85 28.85 0 0 1 2.6 6.3l-4-3.5 1 2.8a.37.37 0 0 1-.2.5 13.44 13.44 0 0 0-1.4 1.1 20.29 20.29 0 0 0-2.1 3.5 1.5 1.5 0 0 1-1.4 1c-1.4.3-3.2.3-3.7-1a2.7 2.7 0 0 1 .4-2.3 19.49 19.49 0 0 1 4.3-5.6 13.65 13.65 0 0 0 1.66-1.7 2.38 2.38 0 0 0 .3-2.3 7.46 7.46 0 0 1-.7-1.2c-.2-.9.7-1.6 1.3-2.4a4.23 4.23 0 0 0-.5-4.9c-3.7-4.7-10.7-3.6-15.2-.5a17.85 17.85 0 0 0-7 10.9 59.29 59.29 0 0 1 4.3-4.4 7.27 7.27 0 0 1 3.9-2.2c.4.8-.5 1.7-1.2 2.2a11.07 11.07 0 0 0-3.7 5.1c1.3-.4 2.3-1.4 3.5-2.1a2.82 2.82 0 0 1 2.74-.2z" fill="#43b883"/><path d="M246.23 98.41c-9.8 0-17.7 16.6-17.7 37.1s7.9 37.1 17.7 37.1 17.7-16.6 17.7-37.1-7.9-37.1-17.7-37.1zm0 72.1c-9.3 0-16.8-15.7-16.8-35s7.5-35 16.8-35 16.7 15.7 16.7 35-7.5 35-16.7 35z" fill="#43b883"/><path d="M263 135.6c0 19.3-7.5 35-16.7 35s-16.8-15.7-16.8-35 7.5-35 16.8-35 16.7 15.7 16.7 35z" transform="translate(-.07 -.09)" fill="#fff" opacity=".45" style="isolation:isolate"/><path d="M263 135.6c0 19.3-7.5 35-16.7 35s-16.8-15.7-16.8-35 7.5-35 16.8-35 16.7 15.7 16.7 35z" transform="translate(-.07 -.09)" fill="#fff" opacity=".45" style="isolation:isolate"/><ellipse cx="243.03" cy="135.21" rx="3.1" ry="7.7" fill="#43b883"/><path d="M276.03 126.21a13.77 13.77 0 0 1 5.9 2.3 6.69 6.69 0 0 1 2.8 5.5c-.2 2.7-2.4 4.8-4.6 6.2a28.16 28.16 0 0 1-11.4 4.2 89.07 89.07 0 0 0 1.1-13.6c0-1.2-.7-4.2.4-5s4.6.2 5.8.4zm-60.2-16.2c-2.3-1.7-5.2-2.3-8-2.8s-6-1.1-8.9-.6c-4 .7-7.4 3.3-11.4 4.1-3.8.8-7.7-.2-11.4-1.4s-7.3-2.8-11.1-3.3-8.1.2-10.8 2.9c4.6-.9 8.4-1.1 12.8.7 1.6.8 3.2 1.6 4.8 2.6a47 47 0 0 0 8.5 4 15.21 15.21 0 0 0 6.7 1c3.5-.4 6.4-2.6 9.4-4.4s6.8-3 9.9-1.4a34.33 34.33 0 0 1 3.3 2.4 11 11 0 0 0 13.6-1.2 9.72 9.72 0 0 1-3.8.5c-1.2-.1-2.6-2.4-3.6-3.1zm-1.5 22.7c-2.4-1.6-5.3-2-8.1-2.4-3-.4-6-.8-8.9-.1-4 .9-7.3 3.6-11.2 4.6-3.7.9-7.7.2-11.4-.9s-7.4-2.5-11.2-2.8-8 .6-10.6 3.4c4.6-1.1 8.4-1.5 12.8.1a44.42 44.42 0 0 1 4.9 2.4 47 47 0 0 0 8.7 3.6 15.69 15.69 0 0 0 6.8.7c3.4-.6 6.3-2.9 9.2-4.8s6.7-3.3 9.9-1.9a39.56 39.56 0 0 1 3.4 2.2 11 11 0 0 0 13.5-1.8 9.86 9.86 0 0 1-3.8.7c-1.4-.2-2.9-2.3-4-3zm4.7 18.9c-2.7-1-5.6-.8-8.4-.6a26.56 26.56 0 0 0-8.8 1.8c-3.7 1.7-6.3 5.1-9.9 7-3.5 1.7-7.5 1.9-11.3 1.6s-7.7-.8-11.6-.3-7.7 2.3-9.6 5.7c4.2-2.1 7.8-3.3 12.5-2.8a31.55 31.55 0 0 1 5.3 1.3 48.91 48.91 0 0 0 9.3 1.6 14.36 14.36 0 0 0 6.8-.8c3.2-1.3 5.4-4.3 7.9-6.7s5.8-4.7 9.2-4c1.3.4 2.6.9 3.8 1.4a11 11 0 0 0 12.8-4.7 12 12 0 0 1-3.5 1.5c-1.3.3-3.3-1.5-4.5-2z" fill="#fff"/></svg>